<svg viewBox="0 0 1000 480" xmlns="http://www.w3.org/2000/svg" width="1000" height="480">
  <defs>
    <marker id="seta" markerWidth="8" markerHeight="8" refX="6" refY="3" orient="auto">
      <path d="M0,0 L0,6 L8,3 z" fill="#8aabca" />
    </marker>
    <marker id="seta-sinal" markerWidth="6" markerHeight="6" refX="5" refY="2.5" orient="auto">
      <path d="M0,0 L0,5 L6,2.5 z" fill="#5a7a9a" />
    </marker>
  </defs>

  <!-- Fundo -->
  <rect width="1000" height="480" fill="#111820" rx="8" />

  <!-- LINHA PRINCIPAL -->
  <line x1="130" y1="200" x2="220" y2="200" stroke="#8aabca" stroke-width="3" marker-end="url(#seta)" />
  <line x1="250" y1="200" x2="320" y2="200" stroke="#8aabca" stroke-width="3" marker-end="url(#seta)" />
  <line x1="360" y1="200" x2="430" y2="200" stroke="#8aabca" stroke-width="3" marker-end="url(#seta)" />
  <line x1="480" y1="200" x2="570" y2="200" stroke="#8aabca" stroke-width="3" marker-end="url(#seta)" />
  <line x1="630" y1="200" x2="750" y2="200" stroke="#8aabca" stroke-width="3" marker-end="url(#seta)" />

  <!-- TK-101 -->
  <g transform="translate(40,155)">
    <rect x="0" y="0" width="90" height="90" rx="4" fill="#182431" stroke="#3a6a9a" stroke-width="2" />
    <path d="M0,10 Q45,-10 90,10" fill="none" stroke="#3a6a9a" stroke-width="2" />
    <line x1="0" y1="10" x2="0" y2="0" stroke="#3a6a9a" stroke-width="2" />
    <line x1="90" y1="10" x2="90" y2="0" stroke="#3a6a9a" stroke-width="2" />
    <text x="45" y="52" text-anchor="middle" fill="#8aabca" font-size="11" font-weight="bold">TK-101</text>
    <text x="45" y="68" text-anchor="middle" fill="#6a8aaa" font-size="9">Tanque</text>
    <text x="45" y="80" text-anchor="middle" fill="#6a8aaa" font-size="9">Entrada</text>
  </g>

  <!-- FV-101 -->
  <g transform="translate(220,188)">
    <polygon points="0,12 16,0 16,24" fill="#2a4a6a" stroke="#5a9acf" stroke-width="1.5" />
    <polygon points="30,12 14,0 14,24" fill="#2a4a6a" stroke="#5a9acf" stroke-width="1.5" />
    <line x1="15" y1="0" x2="15" y2="-14" stroke="#5a9acf" stroke-width="1.5" />
    <circle cx="15" cy="-20" r="8" fill="#182431" stroke="#5a9acf" stroke-width="1.5" />
    <text x="15" y="-16" text-anchor="middle" fill="#8aabca" font-size="7">FC</text>
    <text x="15" y="36" text-anchor="middle" fill="#8aabca" font-size="10" font-weight="bold">FV-101</text>
  </g>

  <!-- FIT-101 -->
  <g transform="translate(320,180)">
    <circle cx="20" cy="20" r="18" fill="#182431" stroke="#5a9acf" stroke-width="1.5" />
    <text x="20" y="17" text-anchor="middle" fill="#8aabca" font-size="7" font-weight="bold">FIT</text>
    <text x="20" y="27" text-anchor="middle" fill="#8aabca" font-size="7">101</text>
    <text x="20" y="50" text-anchor="middle" fill="#6a8aaa" font-size="9">m³/h</text>
  </g>

  <!-- P-101 -->
  <g transform="translate(430,175)">
    <circle cx="25" cy="25" r="23" fill="#182431" stroke="#25a45a" stroke-width="2" />
    <polygon points="14,10 14,40 38,25" fill="#25a45a" opacity="0.7" />
    <text x="25" y="58" text-anchor="middle" fill="#8aabca" font-size="10" font-weight="bold">P-101</text>
    <text x="25" y="70" text-anchor="middle" fill="#6a8aaa" font-size="8">Bomba Principal</text>
  </g>

  <!-- P-102 -->
  <g transform="translate(430,290)">
    <circle cx="25" cy="25" r="23" fill="#182431" stroke="#f5b942" stroke-width="2" />
    <polygon points="14,10 14,40 38,25" fill="#f5b942" opacity="0.6" />
    <text x="25" y="58" text-anchor="middle" fill="#8aabca" font-size="10" font-weight="bold">P-102</text>
    <text x="25" y="70" text-anchor="middle" fill="#6a8aaa" font-size="8">Bomba Reserva</text>
    <line x1="25" y1="-65" x2="25" y2="0" stroke="#5a7a9a" stroke-width="1.5" stroke-dasharray="4 3" marker-end="url(#seta-sinal)" />
  </g>

  <!-- F-101 -->
  <g transform="translate(570,165)">
    <rect x="0" y="0" width="60" height="70" rx="6" fill="#182431" stroke="#3a6a9a" stroke-width="2" />
    <line x1="10" y1="20" x2="50" y2="20" stroke="#3a6a9a" stroke-width="1" stroke-dasharray="3 2" />
    <line x1="10" y1="30" x2="50" y2="30" stroke="#3a6a9a" stroke-width="1" stroke-dasharray="3 2" />
    <line x1="10" y1="40" x2="50" y2="40" stroke="#3a6a9a" stroke-width="1" stroke-dasharray="3 2" />
    <line x1="10" y1="50" x2="50" y2="50" stroke="#3a6a9a" stroke-width="1" stroke-dasharray="3 2" />
    <text x="30" y="82" text-anchor="middle" fill="#8aabca" font-size="10" font-weight="bold">F-101</text>
    <text x="30" y="94" text-anchor="middle" fill="#6a8aaa" font-size="9">Filtro</text>
  </g>

  <!-- DPIT-101 -->
  <g transform="translate(583,118)">
    <circle cx="16" cy="16" r="14" fill="#182431" stroke="#5a9acf" stroke-width="1.5" />
    <text x="16" y="13" text-anchor="middle" fill="#8aabca" font-size="6" font-weight="bold">DPIT</text>
    <text x="16" y="22" text-anchor="middle" fill="#8aabca" font-size="6">101</text>
    <line x1="16" y1="30" x2="16" y2="47" stroke="#5a7a9a" stroke-width="1" stroke-dasharray="3 2" />
  </g>

  <!-- TK-102 -->
  <g transform="translate(750,155)">
    <rect x="0" y="0" width="90" height="90" rx="4" fill="#182431" stroke="#3a6a9a" stroke-width="2" />
    <path d="M0,10 Q45,-10 90,10" fill="none" stroke="#3a6a9a" stroke-width="2" />
    <line x1="0" y1="10" x2="0" y2="0" stroke="#3a6a9a" stroke-width="2" />
    <line x1="90" y1="10" x2="90" y2="0" stroke="#3a6a9a" stroke-width="2" />
    <text x="45" y="52" text-anchor="middle" fill="#8aabca" font-size="11" font-weight="bold">TK-102</text>
    <text x="45" y="68" text-anchor="middle" fill="#6a8aaa" font-size="9">Tanque Saída</text>
  </g>

  <!-- FIT-102 -->
  <g transform="translate(855,180)">
    <circle cx="20" cy="20" r="18" fill="#182431" stroke="#5a9acf" stroke-width="1.5" />
    <text x="20" y="17" text-anchor="middle" fill="#8aabca" font-size="7" font-weight="bold">FIT</text>
    <text x="20" y="27" text-anchor="middle" fill="#8aabca" font-size="7">102</text>
  </g>
  <line x1="840" y1="200" x2="855" y2="200" stroke="#8aabca" stroke-width="3" marker-end="url(#seta)" />
  <line x1="875" y1="200" x2="960" y2="200" stroke="#8aabca" stroke-width="3" marker-end="url(#seta)" />
  <text x="968" y="204" fill="#6a8aaa" font-size="10">Processo</text>

  <!-- INSTRUMENTOS ACIMA DA LINHA -->
  <!-- LIT-101 -->
  <g transform="translate(58,100)">
    <line x1="18" y1="28" x2="18" y2="55" stroke="#5a7a9a" stroke-width="1" stroke-dasharray="3 2" marker-end="url(#seta-sinal)" />
    <circle cx="18" cy="16" r="14" fill="#182431" stroke="#5a9acf" stroke-width="1.5" />
    <text x="18" y="13" text-anchor="middle" fill="#8aabca" font-size="7" font-weight="bold">LIT</text>
    <text x="18" y="22" text-anchor="middle" fill="#8aabca" font-size="7">101</text>
    <text x="18" y="-2" text-anchor="middle" fill="#6a8aaa" font-size="8">Nível %</text>
  </g>

  <!-- PIT-101 -->
  <g transform="translate(375,100)">
    <line x1="18" y1="28" x2="18" y2="80" stroke="#5a7a9a" stroke-width="1" stroke-dasharray="3 2" marker-end="url(#seta-sinal)" />
    <circle cx="18" cy="16" r="14" fill="#182431" stroke="#5a9acf" stroke-width="1.5" />
    <text x="18" y="13" text-anchor="middle" fill="#8aabca" font-size="7" font-weight="bold">PIT</text>
    <text x="18" y="22" text-anchor="middle" fill="#8aabca" font-size="7">101</text>
    <text x="18" y="-2" text-anchor="middle" fill="#6a8aaa" font-size="8">bar</text>
  </g>

  <!-- TIT-101 -->
  <g transform="translate(510,100)">
    <line x1="18" y1="28" x2="18" y2="75" stroke="#5a7a9a" stroke-width="1" stroke-dasharray="3 2" marker-end="url(#seta-sinal)" />
    <circle cx="18" cy="16" r="14" fill="#182431" stroke="#5a9acf" stroke-width="1.5" />
    <text x="18" y="13" text-anchor="middle" fill="#8aabca" font-size="7" font-weight="bold">TIT</text>
    <text x="18" y="22" text-anchor="middle" fill="#8aabca" font-size="7">101</text>
    <text x="18" y="-2" text-anchor="middle" fill="#6a8aaa" font-size="8">°C</text>
  </g>

  <!-- AIT-101 pH -->
  <g transform="translate(660,100)">
    <line x1="18" y1="28" x2="18" y2="65" stroke="#5a7a9a" stroke-width="1" stroke-dasharray="3 2" marker-end="url(#seta-sinal)" />
    <circle cx="18" cy="16" r="14" fill="#182431" stroke="#f5b942" stroke-width="1.5" />
    <text x="18" y="13" text-anchor="middle" fill="#f5b942" font-size="7" font-weight="bold">AIT</text>
    <text x="18" y="22" text-anchor="middle" fill="#f5b942" font-size="7">101</text>
    <text x="18" y="-2" text-anchor="middle" fill="#6a8aaa" font-size="8">pH</text>
  </g>

  <!-- AIT-102 Turbidez -->
  <g transform="translate(700,100)">
    <line x1="18" y1="28" x2="18" y2="65" stroke="#5a7a9a" stroke-width="1" stroke-dasharray="3 2" marker-end="url(#seta-sinal)" />
    <circle cx="18" cy="16" r="14" fill="#182431" stroke="#f5b942" stroke-width="1.5" />
    <text x="18" y="13" text-anchor="middle" fill="#f5b942" font-size="7" font-weight="bold">AIT</text>
    <text x="18" y="22" text-anchor="middle" fill="#f5b942" font-size="7">102</text>
    <text x="18" y="-2" text-anchor="middle" fill="#6a8aaa" font-size="8">NTU</text>
  </g>

  <!-- LINHA DE DESCARTE -->
  <line x1="85" y1="245" x2="85" y2="340" stroke="#5a7a9a" stroke-width="2" />
  <line x1="85" y1="340" x2="210" y2="340" stroke="#5a7a9a" stroke-width="2" marker-end="url(#seta)" />
  <g transform="translate(210,328)">
    <polygon points="0,12 16,0 16,24" fill="#2a4a6a" stroke="#d94b4b" stroke-width="1.5" />
    <polygon points="30,12 14,0 14,24" fill="#2a4a6a" stroke="#d94b4b" stroke-width="1.5" />
    <line x1="15" y1="0" x2="15" y2="-14" stroke="#d94b4b" stroke-width="1.5" />
    <circle cx="15" cy="-20" r="8" fill="#182431" stroke="#d94b4b" stroke-width="1.5" />
    <text x="15" y="-16" text-anchor="middle" fill="#d94b4b" font-size="7">XS</text>
    <text x="15" y="36" text-anchor="middle" fill="#8aabca" font-size="10" font-weight="bold">XV-101</text>
    <text x="15" y="48" text-anchor="middle" fill="#6a8aaa" font-size="8">Descarte</text>
  </g>
  <line x1="242" y1="340" x2="330" y2="340" stroke="#5a7a9a" stroke-width="2" marker-end="url(#seta)" />
  <text x="345" y="344" fill="#6a8aaa" font-size="10">Descarte</text>

  <!-- LINHA DE DOSAGEM QUÍMICA -->
  <g transform="translate(300,395)">
    <rect x="0" y="0" width="60" height="50" rx="4" fill="#182431" stroke="#3a5a7a" stroke-width="1.5" />
    <text x="30" y="24" text-anchor="middle" fill="#8aabca" font-size="9" font-weight="bold">TK-201</text>
    <text x="30" y="36" text-anchor="middle" fill="#6a8aaa" font-size="8">Dosagem</text>
  </g>
  <g transform="translate(390,402)">
    <circle cx="18" cy="18" r="16" fill="#182431" stroke="#5a9acf" stroke-width="1.5" />
    <polygon points="9,7 9,29 28,18" fill="#5a9acf" opacity="0.6" />
    <text x="18" y="44" text-anchor="middle" fill="#8aabca" font-size="9" font-weight="bold">P-201</text>
  </g>
  <g transform="translate(438,402)">
    <circle cx="16" cy="16" r="14" fill="#182431" stroke="#5a9acf" stroke-width="1.5" />
    <text x="16" y="13" text-anchor="middle" fill="#8aabca" font-size="7" font-weight="bold">FIT</text>
    <text x="16" y="22" text-anchor="middle" fill="#8aabca" font-size="7">201</text>
  </g>
  <line x1="454" y1="395" x2="454" y2="205" stroke="#5a7a9a" stroke-width="1.5" stroke-dasharray="4 3" marker-end="url(#seta-sinal)" />

  <!-- TÍTULO -->
  <rect x="0" y="454" width="1000" height="26" fill="#0d1520" />
  <text x="10" y="470" fill="#5a8aaa" font-size="10">
    P&amp;ID Conceitual — Planta de Tratamento de Água | Norma ISA 5.1 (simplificada)
  </text>
  <text x="600" y="470" fill="#5a8aaa" font-size="10">
    ○ Instrumento  |  ▷◁ Válvula  |  ⊙▶ Bomba  |  ─── Linha processo  |  - - Sinal
  </text>
</svg>
